<?xml version="1.0" encoding="utf-8"?>
<!-- Generator: Adobe Illustrator 18.0.0, SVG Export Plug-In . SVG Version: 6.00 Build 0)  -->
<!DOCTYPE svg PUBLIC "-//W3C//DTD SVG 1.1//EN" "http://www.w3.org/Graphics/SVG/1.1/DTD/svg11.dtd">
<svg version="1.1" id="Layer_1" xmlns="http://www.w3.org/2000/svg" xmlns:xlink="http://www.w3.org/1999/xlink" x="0px" y="0px"
	 viewBox="0 0 800 600" enable-background="new 0 0 800 600" xml:space="preserve">
<path fill="#F7F9E4" d="M300,314.2c0,0-97.6-4.9-134.6-77.5c-20.7-40.7-26.1-133.1-27.1-198.5c0-11.4,2.1-7.8,5.3,2.7
	c0.4,1.8,34.2,137.6,55.1,163.7c30.7,38.2,72.1,33.8,92.8,33.5C294.5,239.5,300,314.2,300,314.2z"/>
<path fill="#F7F9E4" d="M499.1,315.6c0,0,97.6-4.9,134.6-77.5c20.7-40.7,26.1-133.1,27.1-198.5c0-11.4-2.1-7.8-5.3,2.7
	c-0.4,1.8-34.2,137.6-55.1,163.7c-30.7,38.2-72.1,33.8-92.8,33.5C504.6,240.9,499.1,315.6,499.1,315.6z"/>
<path fill="#815700" d="M436,537.8c5.8-6.1,6.1-11.4,5.6-14.6c-0.1-1,1.2-1.5,1.7-0.7c0.2,0.3,1.1,1.3,1.6,1.9
	c1.5,1.9,2,2.9,2.2,3.1c1.5,1.7,1,1.4,3-0.3c1-0.9,14.6-20.5,18-31.4c1.9-6.3-0.3-21.3-1.3-27.2c-0.2-1,1.1-1.5,1.7-0.8
	c2.4,2.9,11.2,12.3,13.3,20c1.9,6.8,2.5,18.9,2.7,20c0.5,3.1,0.4,6.5,3.6,3.5c1.7-1.6,4.9-4.6,10.4-11.7c8.3-12,11.3-21.8,11.9-28.9
	s-1-16.1-2.9-21.3c-1.1-2.9-1.1-5.7,2.2-4.8c3,0.8,8,5.6,9.2,6.4c1.8,1.2,1.9-0.3,3.3-2.9c0.3-0.6,6-12.2,1.4-29.9
	c-5-19.2-15.2-36.1-16.3-39.2c-0.9-2.7,2-0.7,4.4,1.4c4.5,3.9,6.2,7.7,9.6,12.3c2.5,3.4,2.5,1.6,3.4-3.1c1.3-6.2,1.4-22.1-1-41.3
	c-2.4-19-9.4-32.4-11.4-37.3c-0.7-1.7-1-3.9-0.2-5.4c1.6-2.9,4.3-3.7,7.1-3.6c3.5,0,6.7,2.9,7.6,3.6c0.9,0.7,3,1.8,3.2,0.5
	c0.2-1.4,1.7-11.6-4.1-19.4c-4.7-6.3-7.5-8.8-8.3-9.3c-0.5-0.5-6-4.7-6-5.2c-0.1-0.7-1-8.6-1-17.3c0-9.4,3.9-13.1,8.8-14.9
	c0.1,0-0.7,0.1-0.5,0c0.1,0,0.9,0,1.4,0c0.2,0,0.4,0,0.4-0.1c0-0.2-0.2-0.8-0.7-2.4c-1.2-3.8-5.5-8.2-10.7-13.1
	c-7.5-7-15.4-9.6-27.2-4.3c-2.9,1.3-6.9,0.5-9-1.5c-6.1-6.4-5-24.7-5-28.2c0-4.8,0.4-6.1-6.4-2.7c-9.9,5-29.4,20.9-32.1,22.9
	c-1.1,0.8-1.9,0.6-2.7-0.6c-2.7-3.6-5.7-11.9-11.9-10.2c-8.1,2.2-17.5,10.1-20,12.4c-0.5,0.3-0.5,1.8-6.3-5.9
	c-9.6-12.4-29.8-33.8-43.3-37.6c-6.5-1.8-6.4,1.9-2.4,7.3c6.4,8.5,15.9,38.6,0.8,40.1c-13.3,1.3-19.7-3.5-20.9-9
	c-1.6-7.7,0.1-11.6,1.5-15.7c0.3-0.9-0.7-1.6-1.5-1.1c-5,3.4-13.4,11-16.8,16.1c-5,7.6-4.7,15.7-4.7,16.8c0.1,1.2-4,1.5-4.8,1.6
	c-3.4,0.1-11.3,2.1-13.2,2.9c-6.3,2.6-8.6,5.5-9.4,9.7c0,0.3-0.1,1.2,0.1,1.2c0.3,0,0.9,0,1.1,0.1c2.8,0.9,6.6,3.4,8.4,5.4
	c2.1,2.4,4.4,6.6,6.6,16.6c0.1,0.5-0.4,1-0.9,1.1c-6.3,0.3-12.4,2-21.5,8.8c-7.4,5.5-8.9,12.3-8.7,14.8c0,0.5,0.5,0.9,1,0.9
	c8.8-0.6,22-0.7,20,5.6c-3.5,6.3-27.9,53.1-22.6,84.9c0.1,0.9,1.3,1.1,1.8,0.3c4.5-7.9,8-13.6,14.3-23.2c7.2-10.9,9.4-0.9,8.7,1.8
	c-1.3,4.7-5.2,13.9-7.6,20.4c-2.6,7.3-4.7,14.4-7.1,21.8c-3.8,11.9-5.1,13.6-6.7,26.4c-0.9,7.2-0.8,9.1-0.3,15.3c0.4,4.1,0,4,5.1-1
	c4.6-4.5,10.1-6.7,11.4-7.3c3.1-1.3,1.4,8.8,1,13.3c-1.2,14.7-1.5,18.9,1.6,24.7c0.8,1.5,4,5.2,4.7,4.1c1.6-2.6,5.5-4.6,6.7-4.7
	c1.2-0.1,7-0.3,6.9,12.6c-0.1,14.1-1,26.1,6,38.9c1.1,2,2.3,0.6,2.9-0.7c2.1-4.3,5.7-12.4,6.7-13.1c1-0.7,3.6-3.2,6,0.3
	c4.9,7,22.8,34,32.1,42.8c0.6,0.5,1.5,0.2,1.6-0.6c0.6-5.3,2-11.6,2.4-13.1c0.7-2.5,12.8,17,14.7,20.2c1.4,2.4,9.5,13,14.3,18.8
	c0.5,0.6,2.2,0.3,2.4-0.5c2.7-10.2,3.2-17.7,7.4-27.2c2.9-6.5,7.2-16,8.8-19c2.6-4.8,5.1-7.4,9-2.2c5.9,8.6,7.5,18.5,8.4,24.1
	c0.1,0.7,0.9,1.1,1.5,0.6C425.4,547.9,431.3,542.8,436,537.8z"/>
<circle cx="433.8" cy="295.8" r="13.2"/>
<circle cx="353.8" cy="296.5" r="13.2"/>
<path fill="#CC9A62" d="M455,385.3c0,24.4-24,34.8-61.8,34.8s-59.4-9.7-61.1-34.8c-1.7-24.7,17.8-38.2,61.1-38.2
	C434.1,347,455,355.7,455,385.3z"/>
<g>
	<circle cx="434.1" cy="380" r="5.1"/>
	<circle cx="353.7" cy="380" r="5.1"/>
</g>
</svg>
